<?xml version="1.0" standalone="no"?>
<!DOCTYPE svg PUBLIC "-//W3C//DTD SVG 20010904//EN"
 "http://www.w3.org/TR/2001/REC-SVG-20010904/DTD/svg10.dtd">
<svg version="1.0" xmlns="http://www.w3.org/2000/svg"
 width="454.000000pt" height="443.000000pt" viewBox="0 0 454.000000 443.000000"
 preserveAspectRatio="xMidYMid meet">

<g transform="translate(0.000000,443.000000) scale(0.100000,-0.100000)"
fill="#000000" stroke="none">
<path d="M2150 4075 c-112 -112 -105 -109 -262 -145 -48 -11 -94 -23 -101 -26
-8 -3 -46 29 -93 77 -130 133 -229 174 -272 112 -36 -53 -77 -185 -102 -328
-6 -38 -14 -79 -16 -90 -2 -11 -25 -36 -51 -55 -183 -135 -394 -397 -490 -610
-19 -41 -41 -90 -49 -107 -40 -89 -100 -315 -125 -473 -18 -121 -16 -450 5
-565 28 -156 35 -184 76 -308 128 -383 372 -710 698 -935 160 -110 386 -205
552 -231 133 -21 140 -25 208 -105 35 -40 83 -92 106 -115 l42 -41 113 125
c86 95 119 125 138 125 85 0 323 80 473 158 308 162 566 430 730 760 104 208
152 366 199 643 22 134 9 493 -23 624 -3 11 -12 51 -22 90 -47 202 -125 377
-251 568 -91 138 -232 294 -346 382 -69 53 -77 69 -77 149 0 84 -57 281 -97
334 -19 26 -31 32 -61 32 -56 0 -129 -48 -210 -138 l-72 -79 -67 18 c-38 10
-99 23 -138 29 l-70 12 -111 109 c-61 60 -115 109 -120 109 -5 0 -57 -47 -114
-105z m194 -92 l65 -68 -67 -67 c-36 -38 -71 -68 -76 -68 -13 0 -136 121 -136
134 0 13 123 136 136 136 7 0 41 -30 78 -67z m-776 38 c75 -39 403 -413 402
-458 -1 -19 -68 -76 -81 -68 -4 3 -13 29 -19 59 -18 86 -153 290 -256 386 -40
37 -29 16 19 -35 43 -46 134 -185 161 -247 19 -42 22 -58 13 -67 -9 -9 -9 -16
1 -31 6 -11 12 -39 12 -64 0 -39 -3 -45 -30 -55 -16 -6 -44 -16 -61 -22 -22
-9 -33 -9 -42 0 -8 8 -6 11 11 11 29 0 28 18 -1 29 -13 5 -29 16 -35 24 -11
13 -10 17 4 25 16 9 15 11 -4 21 -35 19 -25 31 26 32 l47 0 -29 22 c-16 12
-47 36 -69 52 -59 44 -58 55 4 55 l52 0 -47 31 c-26 18 -68 56 -93 85 -26 30
-52 54 -58 54 -22 0 -37 -54 -42 -145 -10 -172 -9 -176 25 -249 17 -37 32 -70
32 -72 0 -14 -39 0 -63 24 l-30 27 22 -41 c27 -48 63 -72 124 -80 84 -12 83
-14 -60 -152 -73 -71 -133 -131 -133 -136 0 -18 127 62 179 113 31 31 97 90
146 131 88 73 89 75 61 80 -27 5 -27 6 -10 20 11 9 30 21 44 27 100 44 201 97
215 113 23 26 10 86 -26 119 -36 34 -89 101 -89 113 0 10 36 7 110 -8 31 -6
33 -5 22 9 -29 35 13 26 116 -25 l109 -53 6 -162 c17 -426 34 -462 36 -77 1
206 3 233 19 247 20 18 159 85 204 98 29 8 30 7 23 -18 -5 -22 -3 -24 12 -18
32 13 93 18 93 8 0 -5 -24 -36 -53 -69 -29 -32 -58 -76 -66 -97 -12 -36 -11
-40 11 -64 28 -30 109 -72 198 -103 36 -12 74 -31 85 -41 19 -19 19 -19 -13
-19 -17 0 -32 -4 -32 -8 0 -10 67 -73 140 -132 30 -25 66 -58 79 -73 30 -35
90 -74 128 -83 23 -5 6 16 -91 114 -65 66 -116 124 -112 130 3 5 31 12 62 14
50 4 61 9 91 41 42 46 43 67 2 33 -17 -14 -34 -26 -38 -26 -19 0 -19 15 0 42
43 59 84 218 60 232 -6 4 -11 36 -11 76 0 66 -22 150 -40 150 -4 0 -27 -25
-51 -56 -24 -30 -63 -68 -86 -83 -49 -33 -46 -43 9 -35 23 4 38 3 38 -4 0 -6
-30 -38 -67 -73 l-68 -62 43 6 c47 6 58 -11 22 -36 -19 -13 -19 -15 -4 -21 15
-6 15 -8 -1 -26 -10 -11 -24 -20 -30 -20 -7 0 -16 -7 -19 -16 -8 -21 -75 -12
-93 13 -16 20 -17 89 -3 98 6 4 8 21 4 39 -4 25 1 47 21 87 27 54 122 205 154
245 9 11 -10 -6 -41 -39 -109 -112 -177 -233 -203 -359 -3 -16 -10 -28 -15
-28 -15 0 -79 43 -84 57 -14 34 321 430 395 468 68 35 120 12 153 -69 23 -56
55 -218 62 -317 8 -115 -10 -354 -31 -403 -19 -45 -15 -54 17 -32 32 23 41 20
33 -11 -4 -16 -8 -35 -9 -43 -1 -9 -6 -21 -10 -29 -11 -17 22 -63 86 -120 52
-46 53 -70 4 -51 -34 13 -59 13 -54 0 2 -5 58 -65 126 -133 67 -69 122 -129
122 -135 0 -13 -40 -7 -117 18 -59 19 -59 18 8 -60 85 -100 170 -253 151 -272
-5 -5 -47 27 -98 75 -49 46 -124 114 -167 151 -42 37 -122 119 -178 182 -55
63 -104 114 -110 114 -24 0 1 -54 43 -92 21 -19 29 -34 25 -47 -4 -16 22 -41
124 -123 71 -57 129 -109 129 -115 0 -7 -12 -13 -27 -13 -24 0 -18 -6 37 -37
94 -53 201 -165 244 -255 19 -40 38 -95 42 -123 l7 -50 -68 67 c-61 61 -169
128 -205 128 -7 0 17 -33 53 -72 74 -83 179 -236 171 -249 -6 -10 -118 47
-179 90 -62 45 -145 91 -145 82 0 -15 69 -99 97 -119 16 -10 45 -25 65 -31 75
-24 116 -80 131 -177 7 -42 0 -104 -12 -104 -3 1 -18 18 -33 39 -26 38 -154
138 -164 128 -3 -2 11 -37 32 -77 20 -39 42 -95 50 -123 18 -68 18 -158 0
-183 -8 -10 -16 -17 -18 -14 -2 3 -13 25 -26 50 -26 52 -82 119 -82 99 0 -8 5
-43 10 -78 17 -120 -15 -268 -79 -365 -28 -42 -61 -64 -46 -30 17 37 17 139 0
180 -12 30 -18 36 -25 24 -5 -8 -10 -35 -10 -59 0 -82 -66 -259 -118 -318 -25
-29 -32 -21 -32 36 0 58 -28 133 -48 129 -8 -2 -25 -30 -37 -63 -34 -94 -53
-136 -87 -192 -41 -67 -58 -75 -51 -22 4 24 2 39 -5 39 -10 0 -104 -107 -180
-206 -18 -23 -62 -100 -98 -170 -37 -71 -75 -141 -85 -156 -11 -14 -19 -30
-19 -35 0 -12 -47 -69 -52 -63 -3 3 -15 34 -27 70 -66 187 -257 498 -287 467
-4 -3 1 -42 10 -86 19 -97 19 -94 17 -104 -2 -16 -116 102 -166 172 -27 38
-55 70 -60 70 -7 1 -10 -15 -8 -36 l4 -38 -58 61 c-67 71 -138 190 -170 284
-12 36 -26 65 -30 65 -4 0 -9 -37 -11 -82 -2 -46 -7 -83 -11 -83 -14 0 -51 86
-62 143 -5 29 -9 101 -8 160 1 59 -1 110 -4 113 -14 14 -49 -61 -54 -117 -3
-33 -10 -62 -15 -65 -13 -8 -58 97 -68 163 -6 32 -10 91 -10 131 0 55 -3 72
-14 72 -18 0 -79 -93 -97 -148 -17 -51 -30 -55 -46 -10 -30 84 -11 229 46 341
23 45 34 77 27 77 -21 0 -102 -89 -131 -143 -35 -65 -34 -64 -45 -47 -33 52
24 243 89 303 14 13 74 54 134 92 107 68 135 91 124 101 -3 3 -38 -8 -78 -25
-41 -17 -77 -31 -81 -31 -5 0 -8 16 -8 35 0 43 70 180 151 293 32 45 59 86 59
91 0 4 -18 3 -40 -2 -22 -6 -43 -8 -47 -4 -4 4 43 58 105 120 70 70 112 120
112 133 0 11 12 31 26 45 27 25 69 98 61 106 -7 6 -32 -21 -142 -152 -51 -60
-127 -148 -169 -195 -88 -98 -95 -117 -36 -112 22 2 40 0 40 -5 0 -17 -54 -60
-156 -126 -56 -36 -116 -84 -134 -106 -19 -23 -37 -41 -42 -41 -19 0 -6 68 27
135 43 89 106 161 188 213 64 40 98 72 79 72 -6 0 -35 -10 -64 -21 -94 -38
-178 -57 -178 -41 0 11 220 209 265 238 39 24 39 25 10 20 -16 -3 -69 -9 -117
-12 -72 -6 -88 -4 -88 7 0 8 13 20 29 27 16 7 61 36 100 65 40 29 92 66 116
84 50 35 44 43 -35 43 -27 0 -51 4 -54 9 -3 5 21 31 54 58 33 26 60 53 60 59
0 6 -7 28 -16 49 -18 44 -13 55 13 26 18 -22 43 -28 43 -11 0 5 -7 35 -15 67
-21 80 -30 376 -15 479 23 159 57 260 98 292 23 17 57 15 100 -7z m-258 -544
c0 -15 -24 -46 -71 -92 -140 -138 -260 -304 -335 -463 -19 -41 -34 -76 -34
-79 0 -3 -6 -19 -14 -36 -51 -112 -97 -318 -116 -513 -8 -87 -7 -144 5 -265 8
-85 17 -163 19 -174 3 -11 12 -54 21 -95 90 -403 352 -788 697 -1023 63 -43
169 -98 281 -146 43 -18 65 -51 34 -51 -24 0 -152 51 -217 86 -401 221 -709
621 -828 1079 -48 184 -56 252 -57 465 0 205 11 293 57 465 14 54 57 185 68
210 84 191 160 319 265 445 73 87 198 210 214 210 6 0 11 -10 11 -23z m2011
-64 c102 -105 156 -172 221 -273 136 -213 224 -444 269 -710 17 -99 17 -405 0
-495 -60 -320 -146 -539 -308 -785 -57 -86 -109 -148 -207 -245 -144 -143
-237 -212 -394 -292 -111 -56 -142 -64 -142 -35 0 12 35 34 118 74 357 176
664 541 805 958 75 224 92 330 92 580 0 176 -4 221 -24 315 -74 352 -239 658
-479 891 -44 42 -63 68 -59 78 11 29 32 17 108 -61z m-2141 -1167 c0 -2 -11
-29 -25 -60 -15 -35 -25 -75 -25 -105 0 -47 -1 -50 -48 -80 -27 -17 -63 -51
-81 -76 -18 -25 -36 -43 -40 -40 -18 11 15 135 54 200 42 73 165 193 165 161z"/>
<path d="M2232 3947 c-28 -30 -28 -38 7 -71 l29 -27 30 33 31 33 -26 27 c-32
34 -43 35 -71 5z"/>
<path d="M1876 2959 c18 -28 58 -72 86 -97 29 -26 66 -59 83 -74 36 -33 56
-35 81 -7 26 28 22 102 -8 166 l-23 48 -3 -35 c-2 -19 -10 -56 -18 -82 -13
-39 -20 -48 -39 -48 -19 0 -29 11 -50 58 -15 31 -37 65 -49 75 -17 15 -81 47
-92 47 -1 0 13 -23 32 -51z"/>
<path d="M2646 2990 c-56 -28 -75 -48 -86 -91 -10 -38 -33 -69 -50 -69 -18 0
-42 51 -49 102 l-7 53 -17 -32 c-10 -18 -20 -60 -24 -93 -5 -50 -3 -64 12 -80
10 -11 26 -20 35 -20 19 0 138 122 192 198 21 29 36 52 35 52 -1 -1 -20 -10
-41 -20z"/>
<path d="M2633 2844 c-35 -18 -43 -44 -18 -64 24 -20 42 -6 37 29 -4 28 -2 31
21 31 28 0 57 -23 57 -46 0 -8 -11 -26 -25 -39 -39 -40 -13 -29 42 18 28 23
59 47 69 53 11 7 16 15 12 19 -3 3 -15 1 -26 -6 -15 -10 -28 -9 -67 5 -59 20
-62 20 -102 0z"/>
<path d="M1770 2834 c-25 -7 -40 -13 -33 -13 6 -1 33 -21 59 -46 51 -49 77
-60 45 -19 -30 39 -27 62 12 79 l32 14 -35 -1 c-19 0 -55 -6 -80 -14z"/>
<path d="M1902 2833 c1 -5 -2 -19 -6 -32 -12 -35 13 -46 42 -18 l23 22 -21 17
c-23 19 -41 24 -38 11z"/>
<path d="M2544 2779 c-20 -32 -53 -134 -45 -142 5 -5 12 0 16 12 8 27 57 61
87 61 23 1 23 1 -5 22 -16 11 -32 30 -36 41 -6 17 -9 18 -17 6z"/>
<path d="M1979 2754 c-9 -8 -34 -22 -55 -29 l-39 -14 44 -1 c38 0 49 -5 83
-40 36 -39 38 -40 38 -16 0 29 -36 116 -48 116 -4 0 -15 -7 -23 -16z"/>
<path d="M2163 2229 c-38 -11 -73 -52 -73 -86 0 -44 56 -146 91 -167 45 -27
79 -57 79 -72 0 -29 -180 -89 -242 -81 -53 7 -67 22 -124 133 -27 53 -61 109
-76 125 -28 31 -73 39 -92 15 -6 -7 -35 -21 -65 -30 -193 -61 -292 -250 -233
-442 25 -79 55 -134 76 -134 8 0 16 -14 19 -34 14 -84 121 -248 283 -431 93
-105 176 -158 107 -68 -77 101 -114 180 -138 295 -8 38 -15 85 -15 104 0 60
-18 36 -31 -41 -7 -41 -16 -75 -21 -75 -8 0 -47 59 -64 100 -49 111 -55 136
-61 248 -3 56 -9 102 -13 102 -7 0 -50 -126 -50 -148 0 -7 -4 -12 -10 -12 -15
0 -24 47 -24 125 -1 60 4 80 31 135 35 71 87 127 148 159 69 36 75 32 68 -50
l-6 -71 27 27 c15 15 29 25 32 23 2 -3 13 -39 23 -81 26 -101 48 -142 66 -127
21 17 35 3 35 -33 1 -18 14 -70 31 -117 17 -47 33 -93 36 -102 3 -10 12 -18
19 -18 10 0 14 14 14 49 0 28 4 53 10 56 5 3 21 -14 36 -37 15 -24 44 -65 65
-93 49 -66 105 -177 138 -272 14 -42 31 -78 36 -80 6 -1 41 51 79 117 37 66
72 120 76 120 4 0 11 -15 16 -32 l10 -33 41 75 c42 77 113 256 113 285 0 31
25 8 67 -61 59 -96 85 -168 86 -239 1 -52 -6 -73 -47 -158 -26 -55 -45 -101
-43 -104 7 -6 166 174 233 262 29 39 70 106 91 150 22 44 54 103 72 130 37 58
71 161 71 214 0 40 -20 113 -43 158 -35 67 -151 147 -244 167 -17 4 -37 14
-44 22 -38 46 -110 -11 -168 -133 -49 -101 -63 -119 -107 -138 -37 -15 -74 -9
-162 26 -65 26 -102 48 -102 60 0 4 27 27 60 49 44 30 66 53 81 86 12 24 25
47 30 50 5 3 9 20 9 39 0 45 -34 84 -85 95 -50 12 -180 11 -222 -1z m231 -35
c9 -8 14 -20 11 -25 -8 -12 -192 -12 -199 0 -21 34 156 58 188 25z m-174 -139
c0 -21 -5 -25 -28 -25 -39 0 -45 9 -19 31 31 25 47 23 47 -6z m180 -16 c0 -5
-13 -9 -30 -9 -22 0 -30 5 -30 18 0 10 3 21 6 25 8 7 54 -22 54 -34z m507 -90
c118 -56 183 -147 183 -257 0 -34 -6 -66 -14 -78 -17 -22 -15 -24 -46 44 -13
28 -26 52 -29 52 -4 0 -5 -35 -3 -79 5 -95 -22 -203 -74 -301 -67 -125 -78
-127 -88 -16 -10 116 -57 234 -130 329 -20 26 -36 50 -36 53 0 23 65 184 74
184 7 0 25 -13 41 -30 16 -16 33 -30 38 -30 5 0 8 33 7 73 -2 83 -2 87 6 87 3
0 35 -14 71 -31z m-441 -152 c12 -12 -29 -60 -67 -79 -51 -25 -176 -24 -233 2
-45 22 -74 59 -61 80 6 9 53 11 181 8 95 -2 176 -7 180 -11z"/>
<path d="M2578 2004 c-16 -8 -28 -17 -28 -19 0 -11 19 -4 41 15 29 23 24 25
-13 4z"/>
<path d="M1972 1995 c9 -10 21 -16 28 -13 7 2 -1 10 -16 17 -27 12 -28 11 -12
-4z"/>
<path d="M2050 1960 c0 -5 7 -10 16 -10 8 0 12 5 9 10 -3 6 -10 10 -16 10 -5
0 -9 -4 -9 -10z"/>
<path d="M2485 1960 c-3 -5 -1 -10 4 -10 6 0 11 5 11 10 0 6 -2 10 -4 10 -3 0
-8 -4 -11 -10z"/>
<path d="M1982 1925 c17 -16 58 -29 58 -18 0 4 -16 13 -36 19 -29 9 -33 9 -22
-1z"/>
<path d="M2538 1913 c7 -3 16 -2 19 1 4 3 -2 6 -13 5 -11 0 -14 -3 -6 -6z"/>
</g>
</svg>
